<svg width="279" height="44" viewBox="0 0 279 44" fill="none" xmlns="http://www.w3.org/2000/svg">
<path fill-rule="evenodd" clip-rule="evenodd" d="M9.94043 1.23003e-06H37.8096C39.0801 -2.88107e-05 40.1517 -5.43222e-05 41.0293 0.0709347C41.9471 0.145177 42.827 0.306788 43.6645 0.729573C44.9386 1.37123 45.9787 2.3977 46.632 3.66533C46.6321 3.66557 46.6319 3.66508 46.632 3.66533C47.0631 4.50125 47.2277 5.37987 47.3031 6.2924C47.3751 7.16291 47.375 8.22455 47.375 9.47774V27.6214C47.375 28.8724 47.3751 29.9329 47.3031 30.8031C47.2276 31.7158 47.063 32.5943 46.6325 33.4306C45.9798 34.6982 44.9404 35.7252 43.6668 36.3674C43.6673 36.3671 43.6678 36.3669 43.6682 36.3667L42.7673 34.5835L43.6668 36.3674C42.8295 36.7901 41.9497 36.9517 41.0324 37.026C40.1554 37.097 39.0849 37.097 37.8169 37.0969H16.9998C15.9267 37.0969 15.6677 37.1062 15.4357 37.1535C15.1832 37.205 14.9477 37.287 14.7242 37.3999L14.7214 37.4013C14.5179 37.5037 14.3107 37.6537 13.4939 38.3019L13.4682 38.3222L9.73195 41.2797C8.80934 42.0097 8.01146 42.6411 7.33954 43.0813C6.67528 43.5165 5.80071 43.9995 4.76782 44L4.76628 42V44C4.10977 44.0003 3.46092 43.8541 2.8678 43.5715C2.27413 43.2886 1.75076 42.8759 1.33771 42.3627C0.687083 41.5551 0.520476 40.5679 0.44844 39.7814C0.374909 38.9787 0.374953 37.9567 0.375003 36.7763L0.375004 9.48479C0.374972 8.22927 0.374944 7.16654 0.446885 6.29524C0.522337 5.38141 0.686953 4.50281 1.1175 3.66629C1.77016 2.39872 2.80963 1.37174 4.08318 0.729558C4.92132 0.307091 5.80165 0.145224 6.72045 0.0709298C7.59831 -5.40838e-05 8.66996 -2.85723e-05 9.94043 1.23003e-06ZM4.67406 5.49683C4.93747 4.98539 5.35975 4.56569 5.88389 4.30132ZM5.88389 4.30132C6.06821 4.20846 6.36859 4.11244 7.04284 4.05792C7.74022 4.00153 8.64901 4 10.0194 4H37.7306C39.101 4 40.0098 4.00153 40.7068 4.05791C41.3813 4.11247 41.6798 4.20841 41.8621 4.30047L41.8648 4.30186C42.3897 4.56603 42.8126 4.98593 43.0764 5.4978C43.1659 5.67112 43.262 5.95964 43.3167 6.62191C43.3734 7.30795 43.375 8.20305 43.375 9.55792V27.5414C43.375 28.8938 43.3734 29.7878 43.3167 30.4735C43.262 31.1352 43.1663 31.4246 43.0759 31.6001C42.8125 32.1116 42.3901 32.5314 41.8659 32.7957L41.8644 32.7965C41.6821 32.8886 41.3835 32.9845 40.7097 33.039C40.0133 33.0954 39.1058 33.0969 37.7377 33.0969H16.9998C16.9477 33.0969 16.8963 33.0969 16.8454 33.0969C16.0022 33.0964 15.3144 33.096 14.6366 33.2342C14.6366 33.2342 14.6365 33.2342 14.6366 33.2342C14.0391 33.356 13.466 33.5543 12.9223 33.8287C12.3003 34.1419 11.7597 34.5712 11.1005 35.0947C11.0698 35.1191 11.0387 35.1437 11.0074 35.1686L10.9855 35.186L7.34515 38.0675C6.3184 38.8799 5.65593 39.4023 5.14748 39.7355C4.89915 39.8982 4.75681 39.9671 4.69484 39.9941C4.65773 39.9878 4.62185 39.9764 4.58838 39.9604C4.55817 39.946 4.53058 39.9283 4.50605 39.9078C4.48872 39.8402 4.45692 39.6912 4.43176 39.4166C4.37703 38.819 4.37501 37.9835 4.37501 36.6832V9.56501C4.37501 8.20779 4.37659 7.31142 4.43332 6.62439C4.48803 5.96173 4.58388 5.67217 4.67406 5.49683M4.45386 39.8548C4.50023 39.9127 4.51785 39.954 4.51871 39.9536C4.5192 39.9534 4.51424 39.9397 4.50605 39.9078C4.48669 39.8917 4.46922 39.8739 4.45386 39.8548ZM4.76474 40C4.69702 40.0002 4.65764 40.0107 4.65738 40.0098C4.65724 40.0093 4.66911 40.0053 4.69484 39.9941C4.71776 39.998 4.74113 40 4.76474 40ZM4.76628 40H4.76474ZM11.0074 35.1686L12.2507 36.7352L11.0093 35.1671L11.0074 35.1686ZM12.9223 33.8287C12.9218 33.829 12.9214 33.8292 12.9209 33.8294L13.8226 35.6147L12.9237 33.828C12.9232 33.8283 12.9228 33.8285 12.9223 33.8287Z" fill="#FD19D3"/>
<path d="M277.767 18.5228L273.335 18.7955C273.259 18.4167 273.097 18.0758 272.847 17.7728C272.597 17.4622 272.267 17.216 271.858 17.0341C271.456 16.8448 270.975 16.7501 270.415 16.7501C269.665 16.7501 269.032 16.9091 268.517 17.2273C268.002 17.5379 267.744 17.9546 267.744 18.4773C267.744 18.894 267.911 19.2463 268.244 19.5341C268.578 19.822 269.15 20.0531 269.96 20.2273L273.119 20.8637C274.816 21.2122 276.081 21.7728 276.915 22.5455C277.748 23.3182 278.165 24.3334 278.165 25.591C278.165 26.7349 277.828 27.7387 277.153 28.6023C276.487 29.466 275.57 30.1402 274.403 30.6251C273.244 31.1023 271.907 31.341 270.392 31.341C268.081 31.341 266.241 30.8599 264.869 29.8978C263.506 28.9281 262.706 27.6099 262.472 25.9432L267.233 25.6932C267.377 26.3978 267.725 26.9357 268.278 27.3069C268.831 27.6705 269.54 27.8523 270.403 27.8523C271.252 27.8523 271.934 27.6894 272.449 27.3637C272.972 27.0304 273.237 26.6023 273.244 26.0796C273.237 25.6402 273.051 25.2804 272.687 25.0001C272.324 24.7122 271.763 24.4925 271.006 24.341L267.983 23.7387C266.278 23.3978 265.009 22.8069 264.176 21.966C263.35 21.1251 262.937 20.0531 262.937 18.7501C262.937 17.6288 263.24 16.6629 263.847 15.8523C264.46 15.0417 265.32 14.4167 266.426 13.9773C267.54 13.5379 268.843 13.3182 270.335 13.3182C272.54 13.3182 274.275 13.7841 275.54 14.716C276.812 15.6478 277.555 16.9167 277.767 18.5228Z" fill="#414141"/>
<path d="M260.849 13.5454V17.1818H250.077V13.5454H260.849ZM252.543 31V12.2841C252.543 11.0189 252.789 9.96969 253.281 9.13635C253.781 8.30302 254.463 7.67802 255.327 7.26135C256.19 6.84469 257.171 6.63635 258.27 6.63635C259.012 6.63635 259.69 6.69317 260.304 6.80681C260.925 6.92044 261.387 7.02272 261.69 7.11363L260.827 10.75C260.637 10.6894 260.402 10.6326 260.122 10.5795C259.849 10.5265 259.569 10.5 259.281 10.5C258.569 10.5 258.073 10.6667 257.793 11C257.512 11.3257 257.372 11.7841 257.372 12.375V31H252.543Z" fill="#414141"/>
<path d="M237.551 31.2841C236.225 31.2841 235.025 30.9432 233.949 30.2614C232.881 29.572 232.032 28.5606 231.403 27.2273C230.782 25.8864 230.472 24.2424 230.472 22.2955C230.472 20.2955 230.794 18.6326 231.437 17.3068C232.081 15.9735 232.937 14.9773 234.006 14.3182C235.081 13.6515 236.259 13.3182 237.54 13.3182C238.517 13.3182 239.331 13.4849 239.983 13.8182C240.642 14.144 241.172 14.5531 241.574 15.0455C241.983 15.5303 242.294 16.0076 242.506 16.4773H242.653V7.72729H247.483V31H242.71V28.2046H242.506C242.278 28.6894 241.956 29.1705 241.54 29.6478C241.131 30.1174 240.597 30.5076 239.937 30.8182C239.286 31.1288 238.49 31.2841 237.551 31.2841ZM239.085 27.4318C239.866 27.4318 240.525 27.2197 241.062 26.7955C241.608 26.3637 242.025 25.7614 242.312 24.9887C242.608 24.2159 242.756 23.3106 242.756 22.2728C242.756 21.2349 242.612 20.3334 242.324 19.5682C242.036 18.8031 241.619 18.2121 241.074 17.7955C240.528 17.3788 239.866 17.1705 239.085 17.1705C238.29 17.1705 237.619 17.3864 237.074 17.8182C236.528 18.25 236.115 18.8485 235.835 19.6137C235.555 20.3788 235.415 21.2652 235.415 22.2728C235.415 23.2879 235.555 24.1856 235.835 24.9659C236.123 25.7387 236.536 26.3447 237.074 26.7841C237.619 27.2159 238.29 27.4318 239.085 27.4318Z" fill="#414141"/>
<path d="M210.773 31V7.72729H219.955C221.72 7.72729 223.223 8.06442 224.466 8.73866C225.708 9.40533 226.655 10.3334 227.307 11.5227C227.966 12.7046 228.295 14.0682 228.295 15.6137C228.295 17.1591 227.962 18.5227 227.295 19.7046C226.629 20.8864 225.663 21.8068 224.398 22.4659C223.14 23.125 221.617 23.4546 219.83 23.4546H213.977V19.5114H219.034C219.981 19.5114 220.761 19.3485 221.375 19.0228C221.996 18.6894 222.458 18.2311 222.761 17.6478C223.072 17.0568 223.227 16.3788 223.227 15.6137C223.227 14.8409 223.072 14.1667 222.761 13.5909C222.458 13.0076 221.996 12.5568 221.375 12.2387C220.754 11.9129 219.966 11.75 219.011 11.75H215.693V31H210.773Z" fill="#414141"/>
<path d="M195.554 20.9091V31H190.713V7.72729H195.418V16.625H195.622C196.016 15.5947 196.652 14.7879 197.531 14.2046C198.41 13.6137 199.512 13.3182 200.838 13.3182C202.05 13.3182 203.107 13.5834 204.008 14.1137C204.918 14.6364 205.622 15.3902 206.122 16.375C206.63 17.3523 206.88 18.5228 206.872 19.8864V31H202.031V20.75C202.039 19.6743 201.766 18.8371 201.213 18.2387C200.668 17.6402 199.902 17.3409 198.918 17.3409C198.258 17.3409 197.675 17.4811 197.168 17.7614C196.668 18.0417 196.274 18.4508 195.986 18.9887C195.705 19.519 195.561 20.1591 195.554 20.9091Z" fill="#414141"/>
<path d="M187.185 13.5455V17.1818H176.673V13.5455H187.185ZM179.06 9.36365H183.901V25.6364C183.901 26.0833 183.969 26.4318 184.105 26.6818C184.242 26.9243 184.431 27.0947 184.673 27.1932C184.923 27.2917 185.211 27.3409 185.537 27.3409C185.764 27.3409 185.992 27.322 186.219 27.2841C186.446 27.2386 186.62 27.2046 186.742 27.1818L187.503 30.7841C187.26 30.8599 186.92 30.947 186.48 31.0455C186.041 31.1515 185.507 31.2159 184.878 31.2386C183.711 31.2841 182.688 31.1288 181.81 30.7727C180.938 30.4167 180.26 29.8636 179.776 29.1136C179.291 28.3636 179.052 27.4167 179.06 26.2727V9.36365Z" fill="#414141"/>
<path d="M169.182 31V13.5454H174.023V31H169.182ZM171.614 11.2954C170.894 11.2954 170.277 11.0568 169.761 10.5795C169.254 10.0947 169 9.51513 169 8.84089C169 8.17422 169.254 7.60225 169.761 7.12498C170.277 6.64013 170.894 6.39771 171.614 6.39771C172.333 6.39771 172.947 6.64013 173.455 7.12498C173.97 7.60225 174.227 8.17422 174.227 8.84089C174.227 9.51513 173.97 10.0947 173.455 10.5795C172.947 11.0568 172.333 11.2954 171.614 11.2954Z" fill="#414141"/>
<path d="M145.406 31L140.656 13.5454H145.554L148.259 25.2727H148.418L151.236 13.5454H156.043L158.906 25.2045H159.054L161.713 13.5454H166.599L161.861 31H156.736L153.736 20.0227H153.52L150.52 31H145.406Z" fill="#414141"/>
<path d="M138.81 13.5455V17.1818H128.298V13.5455H138.81ZM130.685 9.36365H135.526V25.6364C135.526 26.0833 135.594 26.4318 135.73 26.6818C135.867 26.9243 136.056 27.0947 136.298 27.1932C136.548 27.2917 136.836 27.3409 137.162 27.3409C137.389 27.3409 137.617 27.322 137.844 27.2841C138.071 27.2386 138.245 27.2046 138.367 27.1818L139.128 30.7841C138.885 30.8599 138.545 30.947 138.105 31.0455C137.666 31.1515 137.132 31.2159 136.503 31.2386C135.336 31.2841 134.313 31.1288 133.435 30.7727C132.563 30.4167 131.885 29.8636 131.401 29.1136C130.916 28.3636 130.677 27.4167 130.685 26.2727V9.36365Z" fill="#414141"/>
<path d="M115.94 31.3296C114.827 31.3296 113.834 31.1364 112.963 30.7501C112.092 30.3561 111.402 29.7766 110.895 29.0114C110.395 28.2387 110.145 27.2766 110.145 26.1251C110.145 25.1554 110.323 24.341 110.679 23.6819C111.035 23.0228 111.52 22.4925 112.134 22.091C112.747 21.6894 113.444 21.3864 114.224 21.1819C115.012 20.9773 115.838 20.8334 116.702 20.7501C117.717 20.644 118.535 20.5455 119.156 20.4546C119.777 20.3561 120.228 20.2122 120.509 20.0228C120.789 19.8334 120.929 19.5531 120.929 19.1819V19.1137C120.929 18.394 120.702 17.8372 120.247 17.4432C119.8 17.0493 119.164 16.8523 118.338 16.8523C117.467 16.8523 116.774 17.0455 116.259 17.4319C115.743 17.8107 115.402 18.2879 115.236 18.8637L110.759 18.5001C110.986 17.4394 111.433 16.5228 112.099 15.7501C112.766 14.9698 113.626 14.3713 114.679 13.9546C115.74 13.5304 116.967 13.3182 118.361 13.3182C119.331 13.3182 120.259 13.4319 121.145 13.6591C122.039 13.8864 122.831 14.2387 123.52 14.716C124.217 15.1932 124.766 15.8069 125.168 16.5569C125.569 17.2993 125.77 18.1894 125.77 19.2273V31.0001H121.179V28.5796H121.043C120.762 29.1251 120.387 29.6061 119.918 30.0228C119.448 30.4319 118.884 30.7538 118.224 30.9887C117.565 31.216 116.804 31.3296 115.94 31.3296ZM117.327 27.9887C118.039 27.9887 118.668 27.8485 119.213 27.5682C119.759 27.2804 120.187 26.894 120.497 26.4091C120.808 25.9243 120.963 25.3751 120.963 24.7614V22.9091C120.812 23.0076 120.603 23.0985 120.338 23.1819C120.081 23.2576 119.789 23.3296 119.463 23.3978C119.137 23.4584 118.812 23.5152 118.486 23.5682C118.16 23.6137 117.865 23.6554 117.599 23.6932C117.031 23.7766 116.535 23.9091 116.111 24.091C115.687 24.2728 115.357 24.519 115.122 24.8296C114.887 25.1326 114.77 25.5114 114.77 25.966C114.77 26.6251 115.009 27.1288 115.486 27.4773C115.971 27.8182 116.584 27.9887 117.327 27.9887Z" fill="#414141"/>
<path d="M95.8352 20.9091V31H90.9943V7.72729H95.6988V16.625H95.9034C96.2973 15.5947 96.9337 14.7879 97.8124 14.2046C98.6912 13.6137 99.7935 13.3182 101.119 13.3182C102.331 13.3182 103.388 13.5834 104.29 14.1137C105.199 14.6364 105.903 15.3902 106.403 16.375C106.911 17.3523 107.161 18.5228 107.153 19.8864V31H102.312V20.75C102.32 19.6743 102.047 18.8371 101.494 18.2387C100.949 17.6402 100.184 17.3409 99.1988 17.3409C98.5397 17.3409 97.9564 17.4811 97.4488 17.7614C96.9488 18.0417 96.5549 18.4508 96.267 18.9887C95.9867 19.519 95.8427 20.1591 95.8352 20.9091Z" fill="#414141"/>
<path d="M87.5568 15.875H82.5796C82.4886 15.231 82.303 14.6591 82.0227 14.1591C81.7424 13.6515 81.3826 13.2197 80.9432 12.8636C80.5038 12.5075 79.9962 12.2348 79.4205 12.0454C78.8523 11.856 78.2349 11.7613 77.5682 11.7613C76.3636 11.7613 75.3144 12.0606 74.4205 12.6591C73.5265 13.25 72.8333 14.1136 72.3409 15.25C71.8485 16.3788 71.6023 17.75 71.6023 19.3636C71.6023 21.0227 71.8485 22.4166 72.3409 23.5454C72.8409 24.6742 73.5379 25.5265 74.4318 26.1022C75.3258 26.678 76.3599 26.9659 77.5341 26.9659C78.1932 26.9659 78.803 26.8788 79.3636 26.7045C79.9318 26.5303 80.4356 26.2765 80.875 25.9431C81.3144 25.6022 81.678 25.1894 81.9659 24.7045C82.2614 24.2197 82.4659 23.6666 82.5796 23.0454L87.5568 23.0681C87.428 24.1363 87.1061 25.1666 86.5909 26.1591C86.0833 27.1439 85.3977 28.0265 84.5341 28.8068C83.678 29.5795 82.6553 30.1932 81.4659 30.6477C80.2841 31.0947 78.947 31.3181 77.4546 31.3181C75.3788 31.3181 73.5227 30.8485 71.8864 29.9091C70.2576 28.9697 68.9697 27.6098 68.0227 25.8295C67.0833 24.0492 66.6136 21.8939 66.6136 19.3636C66.6136 16.8257 67.0909 14.6666 68.0455 12.8863C69 11.106 70.2955 9.74997 71.9318 8.81815C73.5682 7.87875 75.4091 7.40906 77.4546 7.40906C78.803 7.40906 80.053 7.59845 81.2046 7.97724C82.3636 8.35603 83.3902 8.90906 84.2841 9.63633C85.178 10.356 85.9053 11.2386 86.4659 12.2841C87.0341 13.3295 87.3977 14.5265 87.5568 15.875Z" fill="#414141"/>
</svg>
